<svg width="1645" height="734" viewBox="0 0 1645 734" fill="none" xmlns="http://www.w3.org/2000/svg">
<path d="M1617.91 17.5058C1621 14.4799 1622.54 12.9667 1624.05 13.4116C1625.56 13.8565 1626.03 15.9644 1626.98 20.1807L1627.23 21.2719C1627.5 22.4706 1627.64 23.07 1627.98 23.541C1628.33 24.012 1628.85 24.3023 1629.89 24.883L1630.84 25.4112C1634.5 27.4546 1636.32 28.475 1636.35 30.1124C1636.37 31.7477 1634.58 32.9176 1630.98 35.2552L1630.05 35.8594C1629.03 36.5236 1628.52 36.8559 1628.19 37.3539C1627.86 37.8535 1627.74 38.4633 1627.5 39.6814L1627.29 40.7914C1626.46 45.0812 1626.05 47.2255 1624.56 47.7917C1623.06 48.3578 1621.48 46.972 1618.31 44.2011L1617.48 43.484C1616.58 42.6954 1616.13 42.3028 1615.58 42.1397C1615.03 41.9767 1614.44 42.0622 1613.25 42.2363L1612.17 42.393C1608 43.0006 1605.92 43.3041 1604.97 42.0204C1604.02 40.7325 1604.84 38.7074 1606.47 34.6553L1606.9 33.6089C1607.36 32.457 1607.59 31.881 1607.58 31.282C1607.57 30.6823 1607.32 30.1254 1606.83 29.0156L1606.37 28.0021C1604.62 24.0905 1603.75 22.1333 1604.65 20.7707C1605.56 19.4081 1607.65 19.5417 1611.84 19.8112L1612.92 19.8805C1614.11 19.957 1614.7 19.995 1615.25 19.7876C1615.8 19.5801 1616.23 19.1494 1617.11 18.2889L1617.91 17.5058Z" fill="#F48924"/>
<path d="M26.7394 694.698C30.2311 692.15 31.9762 690.875 33.4054 691.534C34.8345 692.192 35 694.347 35.3324 698.656L35.4186 699.772C35.5127 700.997 35.5598 701.61 35.8342 702.126C36.1087 702.642 36.582 703.004 37.5285 703.73L38.3882 704.389C41.7134 706.94 43.3748 708.214 43.1628 709.838C42.9499 711.459 41.0032 712.357 37.1089 714.151L36.1015 714.614C34.9959 715.124 34.4412 715.379 34.0406 715.823C33.6392 716.27 33.4349 716.856 33.027 718.027L32.6559 719.095C31.2182 723.22 30.5005 725.282 28.9405 725.627C27.3806 725.971 26.0106 724.37 23.2735 721.17L22.5631 720.341C21.7861 719.431 21.3969 718.977 20.8732 718.736C20.3495 718.495 19.7518 718.494 18.5548 718.495L17.4649 718.494C13.2524 718.492 11.1454 718.491 10.3942 717.084C9.6413 715.672 10.7424 713.787 12.9437 710.013L13.5133 709.039C14.1392 707.966 14.4522 707.43 14.5284 706.836C14.6083 706.241 14.4416 705.654 14.1098 704.484L13.808 703.416C12.6399 699.292 12.0573 697.229 13.1522 696.012C14.2471 694.795 16.2989 695.229 20.3979 696.101L21.4578 696.326C22.6225 696.573 23.2042 696.697 23.7763 696.571C24.3485 696.444 24.8432 696.081 25.8356 695.357L26.7394 694.698Z" fill="#F48924"/>
<path d="M116.669 367.828C119.667 364.714 121.165 363.157 122.686 363.558C124.208 363.958 124.744 366.052 125.818 370.239L126.096 371.322C126.401 372.513 126.553 373.108 126.913 373.569C127.273 374.029 127.802 374.304 128.859 374.855L129.82 375.355C133.537 377.292 135.394 378.259 135.467 379.895C135.538 381.529 133.776 382.75 130.251 385.191L129.339 385.822C128.339 386.515 127.837 386.862 127.519 387.37C127.201 387.879 127.102 388.492 126.903 389.716L126.722 390.832C126.021 395.144 125.671 397.299 124.194 397.908C122.718 398.518 121.091 397.178 117.841 394.501L116.998 393.808C116.075 393.046 115.613 392.666 115.055 392.519C114.498 392.372 113.909 392.475 112.73 392.683L111.657 392.871C107.508 393.599 105.432 393.963 104.449 392.707C103.463 391.448 104.22 389.4 105.735 385.302L106.127 384.244C106.558 383.079 106.773 382.496 106.745 381.898C106.721 381.299 106.455 380.749 105.925 379.654L105.443 378.654C103.578 374.795 102.647 372.864 103.515 371.476C104.382 370.088 106.478 370.16 110.666 370.309L111.749 370.346C112.939 370.388 113.533 370.409 114.075 370.186C114.617 369.963 115.041 369.52 115.893 368.634L116.669 367.828Z" fill="#F48924"/>
<path d="M983.924 14.6597C985.059 10.4888 985.625 8.40358 987.153 8.02483C988.68 7.64608 990.155 9.22497 993.107 12.3824L993.871 13.1995C994.71 14.0973 995.13 14.5462 995.667 14.7778C996.203 15.0093 996.799 14.9967 997.991 14.9715L999.075 14.9494C1003.26 14.8638 1005.36 14.8206 1006.21 16.221C1007.05 17.6202 1006.09 19.5375 1004.17 23.3707L1003.68 24.362C1003.13 25.4506 1002.86 25.9962 1002.82 26.5937C1002.79 27.1929 1003 27.7785 1003.41 28.9479L1003.79 30.0134C1005.24 34.1327 1005.97 36.1913 1004.97 37.4347C1003.96 38.6781 1001.89 38.284 997.757 37.4952L996.684 37.2921C995.509 37.0666 994.921 36.9555 994.362 37.0943C993.802 37.2331 993.335 37.6058 992.401 38.3544L991.549 39.0346C988.259 41.6652 986.613 42.9807 985.147 42.3513C983.678 41.7194 983.359 39.5592 982.721 35.2375L982.557 34.1209C982.375 32.8922 982.285 32.2779 981.973 31.7663C981.664 31.2523 981.167 30.8979 980.177 30.1916L979.274 29.5459C975.785 27.0557 974.042 25.8088 974.136 24.1744C974.231 22.54 976.104 21.5978 979.849 19.7172L980.817 19.2306C981.882 18.6962 982.413 18.4292 982.781 17.9733C983.149 17.5174 983.308 16.9249 983.63 15.7391L983.924 14.6597Z" fill="#F48924"/>
<path d="M1455.92 682.659C1457.06 678.489 1457.63 676.403 1459.15 676.025C1460.68 675.646 1462.16 677.225 1465.11 680.382L1465.87 681.199C1466.71 682.097 1467.13 682.546 1467.67 682.778C1468.2 683.009 1468.8 682.996 1469.99 682.971L1471.07 682.949C1475.26 682.864 1477.36 682.82 1478.21 684.221C1479.05 685.62 1478.09 687.537 1476.17 691.37L1475.68 692.362C1475.13 693.45 1474.86 693.996 1474.82 694.593C1474.79 695.193 1475 695.778 1475.41 696.948L1475.79 698.013C1477.24 702.132 1477.97 704.191 1476.97 705.434C1475.96 706.678 1473.89 706.284 1469.76 705.495L1468.68 705.292C1467.51 705.066 1466.92 704.955 1466.36 705.094C1465.8 705.233 1465.33 705.606 1464.4 706.354L1463.55 707.034C1460.26 709.665 1458.61 710.98 1457.15 710.351C1455.68 709.719 1455.36 707.559 1454.72 703.237L1454.56 702.121C1454.38 700.892 1454.28 700.278 1453.97 699.766C1453.66 699.252 1453.17 698.898 1452.18 698.191L1451.27 697.546C1447.79 695.055 1446.04 693.809 1446.14 692.174C1446.23 690.54 1448.1 689.598 1451.85 687.717L1452.82 687.23C1453.88 686.696 1454.41 686.429 1454.78 685.973C1455.15 685.517 1455.31 684.925 1455.63 683.739L1455.92 682.659Z" fill="#F48924"/>
<path d="M1609.92 359.66C1611.06 355.489 1611.63 353.404 1613.15 353.025C1614.68 352.646 1616.16 354.225 1619.11 357.382L1619.87 358.199C1620.71 359.097 1621.13 359.546 1621.67 359.778C1622.2 360.009 1622.8 359.997 1623.99 359.972L1625.07 359.949C1629.26 359.864 1631.36 359.821 1632.21 361.221C1633.05 362.62 1632.09 364.537 1630.17 368.371L1629.68 369.362C1629.13 370.451 1628.86 370.996 1628.82 371.594C1628.79 372.193 1629 372.778 1629.41 373.948L1629.79 375.013C1631.24 379.133 1631.97 381.191 1630.97 382.435C1629.96 383.678 1627.89 383.284 1623.76 382.495L1622.68 382.292C1621.51 382.067 1620.92 381.956 1620.36 382.094C1619.8 382.233 1619.33 382.606 1618.4 383.354L1617.55 384.035C1614.26 386.665 1612.61 387.981 1611.15 387.351C1609.68 386.719 1609.36 384.559 1608.72 380.237L1608.56 379.121C1608.38 377.892 1608.28 377.278 1607.97 376.766C1607.66 376.252 1607.17 375.898 1606.18 375.192L1605.27 374.546C1601.79 372.056 1600.04 370.809 1600.14 369.174C1600.23 367.54 1602.1 366.598 1605.85 364.717L1606.82 364.231C1607.88 363.696 1608.41 363.429 1608.78 362.973C1609.15 362.517 1609.31 361.925 1609.63 360.739L1609.92 359.66Z" fill="#F48924"/>
<path d="M41.2637 170.356C40.2428 166.156 39.7317 164.057 40.8861 162.988C42.0405 161.918 44.0948 162.588 48.2046 163.927L49.2684 164.274C50.4366 164.655 51.0208 164.845 51.6026 164.789C52.1844 164.732 52.7003 164.433 53.7319 163.835L54.6698 163.293C58.2974 161.194 60.1095 160.145 61.5292 160.962C62.9465 161.778 63.0326 163.92 63.2026 168.204L63.246 169.312C63.2947 170.528 63.3184 171.138 63.5764 171.678C63.8355 172.22 64.2994 172.632 65.2261 173.457L66.071 174.208C69.3343 177.112 70.9661 178.563 70.6883 180.136C70.4106 181.709 68.4079 182.364 64.4049 183.671L63.3678 184.011C62.2296 184.382 61.6616 184.568 61.2386 184.96C60.8156 185.352 60.5864 185.904 60.1302 187.01L59.713 188.017C58.1026 191.91 57.2967 193.857 55.7093 194.013C54.1172 194.17 52.7951 192.432 50.1486 188.956L49.4658 188.058C48.7135 187.07 48.3373 186.575 47.8172 186.278C47.2985 185.977 46.6921 185.907 45.4841 185.767L44.3814 185.637C40.1241 185.142 37.9949 184.892 37.2884 183.415C36.5818 181.939 37.7673 180.209 40.1383 176.753L40.7509 175.859C41.4246 174.878 41.7608 174.387 41.8629 173.81C41.9649 173.233 41.8184 172.638 41.5278 171.444L41.2637 170.356Z" fill="#F48924"/>
</svg>
