<svg width="1757" height="783" viewBox="0 0 1757 783" fill="none" xmlns="http://www.w3.org/2000/svg">
<path d="M1456.32 16.9189C1459.41 13.893 1460.95 12.3798 1462.46 12.8247C1463.97 13.2695 1464.44 15.3775 1465.4 19.5937L1465.64 20.685C1465.91 21.8837 1466.05 22.483 1466.4 22.9541C1466.74 23.4251 1467.26 23.7154 1468.3 24.296L1469.25 24.8243C1472.91 26.8677 1474.74 27.8881 1474.76 29.5255C1474.79 31.1608 1472.99 32.3307 1469.4 34.6683L1468.47 35.2725C1467.44 35.9366 1466.93 36.269 1466.6 36.767C1466.27 37.2666 1466.15 37.8764 1465.92 39.0944L1465.7 40.2044C1464.88 44.4943 1464.47 46.6386 1462.97 47.2048C1461.48 47.7709 1459.89 46.385 1456.72 43.6142L1455.9 42.8971C1455 42.1085 1454.55 41.7158 1453.99 41.5528C1453.44 41.3898 1452.85 41.4753 1451.66 41.6494L1450.59 41.8061C1446.42 42.4137 1444.33 42.7172 1443.39 41.4334C1442.44 40.1455 1443.25 38.1205 1444.89 34.0684L1445.31 33.022C1445.77 31.8701 1446 31.2941 1445.99 30.6951C1445.99 30.0954 1445.74 29.5385 1445.24 28.4287L1444.79 27.4152C1443.03 23.5036 1442.16 21.5464 1443.07 20.1838C1443.97 18.8212 1446.07 18.9548 1450.25 19.2243L1451.33 19.2935C1452.52 19.3701 1453.11 19.4081 1453.66 19.2007C1454.21 18.9932 1454.65 18.5625 1455.52 17.702L1456.32 16.9189Z" fill="#0CB9C1"/>
<path d="M26.7394 743.698C30.2311 741.15 31.9762 739.875 33.4054 740.534C34.8345 741.192 35 743.347 35.3324 747.656L35.4186 748.772C35.5127 749.997 35.5598 750.61 35.8342 751.126C36.1087 751.642 36.582 752.004 37.5285 752.73L38.3882 753.389C41.7134 755.94 43.3748 757.214 43.1628 758.838C42.9499 760.459 41.0032 761.357 37.1089 763.151L36.1015 763.614C34.9959 764.124 34.4412 764.379 34.0406 764.823C33.6392 765.27 33.4349 765.856 33.027 767.027L32.6559 768.095C31.2182 772.22 30.5005 774.282 28.9405 774.627C27.3806 774.971 26.0106 773.37 23.2735 770.17L22.5631 769.341C21.7861 768.431 21.3969 767.977 20.8732 767.736C20.3495 767.495 19.7518 767.494 18.5548 767.495L17.4649 767.494C13.2524 767.492 11.1454 767.491 10.3942 766.084C9.6413 764.672 10.7424 762.787 12.9437 759.013L13.5133 758.039C14.1392 756.966 14.4522 756.43 14.5284 755.836C14.6083 755.241 14.4416 754.654 14.1098 753.484L13.808 752.416C12.6399 748.292 12.0573 746.229 13.1522 745.012C14.2471 743.795 16.2989 744.229 20.3979 745.101L21.4578 745.326C22.6225 745.573 23.2042 745.697 23.7763 745.571C24.3485 745.444 24.8432 745.081 25.8356 744.357L26.7394 743.698Z" fill="#0CB9C1"/>
<path d="M116.669 416.828C119.667 413.714 121.165 412.156 122.686 412.557C124.208 412.958 124.744 415.051 125.818 419.238L126.096 420.322C126.401 421.512 126.553 422.108 126.913 422.568C127.273 423.029 127.802 423.304 128.859 423.854L129.82 424.355C133.537 426.291 135.394 427.258 135.467 428.894C135.538 430.528 133.776 431.75 130.251 434.191L129.339 434.822C128.339 435.515 127.837 435.862 127.519 436.37C127.201 436.879 127.102 437.491 126.903 438.716L126.722 439.831C126.021 444.143 125.671 446.299 124.194 446.908C122.718 447.517 121.091 446.178 117.841 443.5L116.998 442.807C116.075 442.045 115.613 441.666 115.055 441.519C114.498 441.372 113.909 441.475 112.73 441.683L111.657 441.871C107.508 442.599 105.432 442.963 104.449 441.707C103.463 440.447 104.22 438.399 105.735 434.302L106.127 433.244C106.558 432.079 106.773 431.496 106.745 430.898C106.721 430.298 106.455 429.749 105.925 428.654L105.443 427.654C103.578 423.795 102.647 421.864 103.515 420.476C104.382 419.087 106.478 419.16 110.666 419.308L111.749 419.346C112.939 419.388 113.533 419.409 114.075 419.186C114.617 418.962 115.041 418.519 115.893 417.634L116.669 416.828Z" fill="#0CB9C1"/>
<path d="M1730.58 236.564C1733.57 233.45 1735.07 231.893 1736.59 232.294C1738.12 232.695 1738.65 234.788 1739.73 238.975L1740 240.058C1740.31 241.249 1740.46 241.844 1740.82 242.305C1741.18 242.765 1741.71 243.041 1742.77 243.591L1743.73 244.091C1747.45 246.028 1749.3 246.995 1749.38 248.631C1749.45 250.265 1747.68 251.486 1744.16 253.927L1743.25 254.558C1742.25 255.251 1741.75 255.598 1741.43 256.106C1741.11 256.615 1741.01 257.228 1740.81 258.452L1740.63 259.568C1739.93 263.88 1739.58 266.035 1738.1 266.644C1736.63 267.254 1735 265.914 1731.75 263.237L1730.91 262.544C1729.98 261.782 1729.52 261.402 1728.96 261.255C1728.41 261.108 1727.82 261.211 1726.64 261.419L1725.57 261.607C1721.42 262.335 1719.34 262.699 1718.36 261.444C1717.37 260.184 1718.13 258.136 1719.64 254.038L1720.04 252.98C1720.47 251.815 1720.68 251.232 1720.65 250.634C1720.63 250.035 1720.36 249.485 1719.83 248.39L1719.35 247.391C1717.49 243.531 1716.56 241.6 1717.42 240.212C1718.29 238.824 1720.39 238.897 1724.57 239.045L1725.66 239.082C1726.85 239.125 1727.44 239.145 1727.98 238.922C1728.53 238.699 1728.95 238.256 1729.8 237.37L1730.58 236.564Z" fill="#0CB9C1"/>
<path d="M545.924 14.6597C547.059 10.4888 547.625 8.40358 549.153 8.02483C550.68 7.64608 552.155 9.22497 555.107 12.3824L555.871 13.1995C556.71 14.0973 557.13 14.5462 557.666 14.7778C558.203 15.0093 558.799 14.9967 559.991 14.9715L561.075 14.9494C565.265 14.8638 567.358 14.8206 568.207 16.221C569.054 17.6202 568.095 19.5375 566.174 23.3707L565.677 24.362C565.132 25.4506 564.858 25.9962 564.823 26.5937C564.789 27.1929 564.996 27.7785 565.409 28.9479L565.786 30.0134C567.241 34.1327 567.969 36.1913 566.966 37.4347C565.963 38.6781 563.893 38.284 559.757 37.4952L558.684 37.2921C557.509 37.0666 556.921 36.9555 556.362 37.0943C555.802 37.2331 555.335 37.6058 554.401 38.3544L553.549 39.0346C550.259 41.6652 548.613 42.9807 547.147 42.3513C545.678 41.7194 545.359 39.5592 544.721 35.2375L544.557 34.1209C544.375 32.8922 544.285 32.2779 543.973 31.7663C543.664 31.2523 543.167 30.8979 542.177 30.1916L541.274 29.5459C537.785 27.0557 536.042 25.8088 536.136 24.1744C536.231 22.54 538.104 21.5978 541.849 19.7172L542.817 19.2306C543.881 18.6962 544.413 18.4292 544.781 17.9733C545.149 17.5174 545.308 16.9249 545.63 15.7391L545.924 14.6597Z" fill="#0CB9C1"/>
<path d="M1455.92 731.66C1457.06 727.489 1457.63 725.404 1459.15 725.025C1460.68 724.646 1462.16 726.225 1465.11 729.382L1465.87 730.199C1466.71 731.097 1467.13 731.546 1467.67 731.778C1468.2 732.009 1468.8 731.997 1469.99 731.972L1471.07 731.949C1475.26 731.864 1477.36 731.821 1478.21 733.221C1479.05 734.62 1478.09 736.537 1476.17 740.371L1475.68 741.362C1475.13 742.451 1474.86 742.996 1474.82 743.594C1474.79 744.193 1475 744.778 1475.41 745.948L1475.79 747.013C1477.24 751.133 1477.97 753.191 1476.97 754.435C1475.96 755.678 1473.89 755.284 1469.76 754.495L1468.68 754.292C1467.51 754.067 1466.92 753.956 1466.36 754.094C1465.8 754.233 1465.33 754.606 1464.4 755.354L1463.55 756.035C1460.26 758.665 1458.61 759.981 1457.15 759.351C1455.68 758.719 1455.36 756.559 1454.72 752.237L1454.56 751.121C1454.38 749.892 1454.28 749.278 1453.97 748.766C1453.66 748.252 1453.17 747.898 1452.18 747.192L1451.27 746.546C1447.79 744.056 1446.04 742.809 1446.14 741.174C1446.23 739.54 1448.1 738.598 1451.85 736.717L1452.82 736.231C1453.88 735.696 1454.41 735.429 1454.78 734.973C1455.15 734.517 1455.31 733.925 1455.63 732.739L1455.92 731.66Z" fill="#0CB9C1"/>
<path d="M1609.92 408.66C1611.06 404.489 1611.63 402.404 1613.15 402.025C1614.68 401.646 1616.16 403.225 1619.11 406.382L1619.87 407.199C1620.71 408.097 1621.13 408.546 1621.67 408.778C1622.2 409.009 1622.8 408.997 1623.99 408.972L1625.07 408.949C1629.26 408.864 1631.36 408.821 1632.21 410.221C1633.05 411.62 1632.09 413.537 1630.17 417.371L1629.68 418.362C1629.13 419.451 1628.86 419.996 1628.82 420.594C1628.79 421.193 1629 421.778 1629.41 422.948L1629.79 424.013C1631.24 428.133 1631.97 430.191 1630.97 431.435C1629.96 432.678 1627.89 432.284 1623.76 431.495L1622.68 431.292C1621.51 431.067 1620.92 430.956 1620.36 431.094C1619.8 431.233 1619.33 431.606 1618.4 432.354L1617.55 433.035C1614.26 435.665 1612.61 436.981 1611.15 436.351C1609.68 435.719 1609.36 433.559 1608.72 429.237L1608.56 428.121C1608.38 426.892 1608.28 426.278 1607.97 425.766C1607.66 425.252 1607.17 424.898 1606.18 424.192L1605.27 423.546C1601.79 421.056 1600.04 419.809 1600.14 418.174C1600.23 416.54 1602.1 415.598 1605.85 413.717L1606.82 413.231C1607.88 412.696 1608.41 412.429 1608.78 411.973C1609.15 411.517 1609.31 410.925 1609.63 409.739L1609.92 408.66Z" fill="#0CB9C1"/>
<path d="M41.2637 219.357C40.2428 215.157 39.7317 213.057 40.8861 211.988C42.0405 210.918 44.0948 211.589 48.2046 212.927L49.2684 213.274C50.4366 213.655 51.0208 213.845 51.6026 213.789C52.1844 213.732 52.7003 213.433 53.7319 212.836L54.6698 212.293C58.2974 210.194 60.1095 209.146 61.5292 209.962C62.9465 210.778 63.0326 212.92 63.2026 217.204L63.246 218.312C63.2947 219.528 63.3184 220.138 63.5764 220.679C63.8355 221.22 64.2994 221.633 65.2261 222.457L66.071 223.208C69.3343 226.112 70.9661 227.563 70.6883 229.136C70.4106 230.71 68.4079 231.364 64.4049 232.671L63.3678 233.012C62.2296 233.382 61.6616 233.568 61.2386 233.96C60.8156 234.352 60.5864 234.904 60.1302 236.01L59.713 237.017C58.1026 240.91 57.2967 242.857 55.7093 243.014C54.1172 243.17 52.7951 241.432 50.1486 237.957L49.4658 237.058C48.7135 236.07 48.3373 235.576 47.8172 235.278C47.2985 234.977 46.6921 234.907 45.4841 234.767L44.3814 234.638C40.1241 234.142 37.9949 233.892 37.2884 232.416C36.5818 230.939 37.7673 229.209 40.1383 225.753L40.7509 224.86C41.4246 223.878 41.7608 223.387 41.8629 222.811C41.9649 222.234 41.8184 221.638 41.5278 220.444L41.2637 219.357Z" fill="#0CB9C1"/>
</svg>
