<svg width="1812" height="937" viewBox="0 0 1812 937" fill="none" xmlns="http://www.w3.org/2000/svg">
<path d="M1779.82 15.7849C1780.9 11.5989 1781.43 9.50608 1782.96 9.10641C1784.48 8.70674 1785.98 10.2652 1788.97 13.3818L1789.75 14.1884C1790.6 15.0746 1791.02 15.5177 1791.56 15.7419C1792.1 15.966 1792.7 15.9453 1793.89 15.9038L1794.97 15.8668C1799.16 15.7237 1801.25 15.6518 1802.12 17.0404C1802.99 18.4278 1802.06 20.3581 1800.19 24.2173L1799.7 25.2153C1799.17 26.3113 1798.91 26.8606 1798.88 27.4586C1798.85 28.0582 1799.07 28.6408 1799.5 29.8045L1799.89 30.8646C1801.4 34.9636 1802.16 37.0121 1801.17 38.2691C1800.19 39.5261 1798.11 39.1605 1793.96 38.4285L1792.89 38.2402C1791.71 38.0308 1791.12 37.9278 1790.56 38.0742C1790.01 38.2207 1789.54 38.5997 1788.62 39.3611L1787.78 40.053C1784.52 42.7285 1782.9 44.0664 1781.42 43.4571C1779.94 42.8455 1779.6 40.6898 1778.9 36.3773L1778.72 35.2631C1778.52 34.037 1778.42 33.424 1778.1 32.9167C1777.79 32.407 1777.29 32.0595 1776.29 31.3668L1775.37 30.7336C1771.85 28.2915 1770.09 27.0686 1770.16 25.4331C1770.24 23.7976 1772.1 22.8297 1775.81 20.8979L1776.78 20.3981C1777.83 19.8491 1778.36 19.5749 1778.72 19.114C1779.08 18.6531 1779.23 18.0584 1779.54 16.8683L1779.82 15.7849Z" fill="#F85A40"/>
<path d="M1645.64 232.422C1649.13 229.874 1650.87 228.6 1652.3 229.258C1653.73 229.917 1653.9 232.071 1654.23 236.381L1654.32 237.496C1654.41 238.721 1654.46 239.334 1654.73 239.85C1655.01 240.366 1655.48 240.729 1656.43 241.454L1657.29 242.113C1660.61 244.664 1662.27 245.938 1662.06 247.562C1661.85 249.184 1659.9 250.082 1656.01 251.875L1655 252.338C1653.89 252.848 1653.34 253.103 1652.94 253.548C1652.54 253.994 1652.33 254.58 1651.92 255.752L1651.55 256.819C1650.12 260.945 1649.4 263.007 1647.84 263.351C1646.28 263.695 1644.91 262.094 1642.17 258.894L1641.46 258.066C1640.68 257.155 1640.29 256.702 1639.77 256.46C1639.25 256.219 1638.65 256.218 1637.45 256.219L1636.36 256.218C1632.15 256.217 1630.04 256.216 1629.29 254.808C1628.54 253.397 1629.64 251.511 1631.84 247.738L1632.41 246.763C1633.04 245.691 1633.35 245.154 1633.43 244.56C1633.51 243.966 1633.34 243.379 1633.01 242.208L1632.7 241.14C1631.54 237.016 1630.95 234.953 1632.05 233.736C1633.14 232.519 1635.2 232.954 1639.29 233.825L1640.35 234.05C1641.52 234.298 1642.1 234.421 1642.67 234.295C1643.25 234.169 1643.74 233.806 1644.73 233.081L1645.64 232.422Z" fill="#F85A40"/>
<path d="M26.7394 713.525C30.2311 710.977 31.9762 709.703 33.4054 710.361C34.8345 711.02 35 713.174 35.3324 717.484L35.4186 718.599C35.5127 719.825 35.5598 720.437 35.8342 720.953C36.1087 721.469 36.582 721.832 37.5285 722.557L38.3882 723.217C41.7134 725.768 43.3748 727.042 43.1628 728.665C42.9499 730.287 41.0032 731.185 37.1089 732.978L36.1015 733.442C34.9959 733.951 34.4412 734.206 34.0406 734.651C33.6392 735.097 33.4349 735.684 33.027 736.855L32.6559 737.923C31.2182 742.048 30.5005 744.11 28.9405 744.454C27.3806 744.798 26.0106 743.198 23.2735 739.998L22.5631 739.169C21.7861 738.258 21.3969 737.805 20.8732 737.564C20.3495 737.322 19.7518 737.321 18.5548 737.322L17.4649 737.321C13.2524 737.32 11.1454 737.319 10.3942 735.912C9.6413 734.5 10.7424 732.614 12.9437 728.841L13.5133 727.867C14.1392 726.794 14.4522 726.258 14.5284 725.663C14.6083 725.069 14.4416 724.482 14.1098 723.312L13.808 722.243C12.6399 718.12 12.0573 716.056 13.1522 714.839C14.2471 713.622 16.2989 714.057 20.3979 714.928L21.4578 715.153C22.6225 715.401 23.2042 715.524 23.7763 715.398C24.3485 715.272 24.8432 714.909 25.8356 714.185L26.7394 713.525Z" fill="#F85A40"/>
<path d="M116.669 386.656C119.667 383.542 121.165 381.984 122.686 382.385C124.208 382.786 124.744 384.879 125.818 389.066L126.096 390.15C126.401 391.34 126.553 391.935 126.913 392.396C127.273 392.857 127.802 393.132 128.859 393.682L129.82 394.183C133.537 396.119 135.394 397.086 135.467 398.722C135.538 400.356 133.776 401.578 130.251 404.019L129.339 404.649C128.339 405.343 127.837 405.69 127.519 406.197C127.201 406.706 127.102 407.319 126.903 408.544L126.722 409.659C126.021 413.971 125.671 416.127 124.194 416.736C122.718 417.345 121.091 416.006 117.841 413.328L116.998 412.635C116.075 411.873 115.613 411.494 115.055 411.347C114.498 411.2 113.909 411.302 112.73 411.511L111.657 411.699C107.508 412.427 105.432 412.791 104.449 411.535C103.463 410.275 104.22 408.227 105.735 404.13L106.127 403.071C106.558 401.906 106.773 401.324 106.745 400.726C106.721 400.126 106.455 399.577 105.925 398.482L105.443 397.482C103.578 393.623 102.647 391.692 103.515 390.304C104.382 388.915 106.478 388.988 110.666 389.136L111.749 389.174C112.939 389.216 113.533 389.237 114.075 389.014C114.617 388.79 115.041 388.347 115.893 387.462L116.669 386.656Z" fill="#F85A40"/>
<path d="M894.924 127.66C896.059 123.489 896.625 121.404 898.153 121.025C899.68 120.646 901.155 122.225 904.107 125.382L904.871 126.199C905.71 127.097 906.13 127.546 906.666 127.778C907.203 128.009 907.799 127.997 908.991 127.972L910.075 127.949C914.265 127.864 916.358 127.821 917.207 129.221C918.054 130.62 917.095 132.537 915.174 136.371L914.677 137.362C914.132 138.451 913.858 138.996 913.823 139.594C913.789 140.193 913.996 140.778 914.409 141.948L914.786 143.013C916.241 147.133 916.969 149.191 915.966 150.435C914.963 151.678 912.893 151.284 908.757 150.495L907.684 150.292C906.509 150.067 905.921 149.956 905.362 150.094C904.802 150.233 904.335 150.606 903.401 151.354L902.549 152.035C899.259 154.665 897.613 155.981 896.147 155.351C894.678 154.719 894.359 152.559 893.721 148.237L893.557 147.121C893.375 145.892 893.285 145.278 892.973 144.766C892.664 144.252 892.167 143.898 891.177 143.192L890.274 142.546C886.785 140.056 885.042 138.809 885.136 137.174C885.231 135.54 887.104 134.598 890.849 132.717L891.817 132.231C892.881 131.696 893.413 131.429 893.781 130.973C894.149 130.517 894.308 129.925 894.63 128.739L894.924 127.66Z" fill="#F85A40"/>
<path d="M1557.92 766.659C1559.06 762.489 1559.63 760.403 1561.15 760.025C1562.68 759.646 1564.16 761.225 1567.11 764.382L1567.87 765.199C1568.71 766.097 1569.13 766.546 1569.67 766.778C1570.2 767.009 1570.8 766.996 1571.99 766.971L1573.07 766.949C1577.26 766.864 1579.36 766.82 1580.21 768.221C1581.05 769.62 1580.09 771.537 1578.17 775.37L1577.68 776.362C1577.13 777.45 1576.86 777.996 1576.82 778.593C1576.79 779.193 1577 779.778 1577.41 780.948L1577.79 782.013C1579.24 786.132 1579.97 788.191 1578.97 789.434C1577.96 790.678 1575.89 790.284 1571.76 789.495L1570.68 789.292C1569.51 789.066 1568.92 788.955 1568.36 789.094C1567.8 789.233 1567.33 789.606 1566.4 790.354L1565.55 791.034C1562.26 793.665 1560.61 794.98 1559.15 794.351C1557.68 793.719 1557.36 791.559 1556.72 787.237L1556.56 786.121C1556.38 784.892 1556.28 784.278 1555.97 783.766C1555.66 783.252 1555.17 782.898 1554.18 782.191L1553.27 781.546C1549.79 779.055 1548.04 777.809 1548.14 776.174C1548.23 774.54 1550.1 773.598 1553.85 771.717L1554.82 771.23C1555.88 770.696 1556.41 770.429 1556.78 769.973C1557.15 769.517 1557.31 768.925 1557.63 767.739L1557.92 766.659Z" fill="#F85A40"/>
<path d="M1740.92 492.66C1742.06 488.489 1742.63 486.404 1744.15 486.025C1745.68 485.646 1747.16 487.225 1750.11 490.382L1750.87 491.199C1751.71 492.097 1752.13 492.546 1752.67 492.778C1753.2 493.009 1753.8 492.997 1754.99 492.972L1756.07 492.949C1760.26 492.864 1762.36 492.821 1763.21 494.221C1764.05 495.62 1763.09 497.537 1761.17 501.371L1760.68 502.362C1760.13 503.451 1759.86 503.996 1759.82 504.594C1759.79 505.193 1760 505.778 1760.41 506.948L1760.79 508.013C1762.24 512.133 1762.97 514.191 1761.97 515.435C1760.96 516.678 1758.89 516.284 1754.76 515.495L1753.68 515.292C1752.51 515.067 1751.92 514.956 1751.36 515.094C1750.8 515.233 1750.33 515.606 1749.4 516.354L1748.55 517.035C1745.26 519.665 1743.61 520.981 1742.15 520.351C1740.68 519.719 1740.36 517.559 1739.72 513.237L1739.56 512.121C1739.38 510.892 1739.28 510.278 1738.97 509.766C1738.66 509.252 1738.17 508.898 1737.18 508.192L1736.27 507.546C1732.79 505.056 1731.04 503.809 1731.14 502.174C1731.23 500.54 1733.1 499.598 1736.85 497.717L1737.82 497.231C1738.88 496.696 1739.41 496.429 1739.78 495.973C1740.15 495.517 1740.31 494.925 1740.63 493.739L1740.92 492.66Z" fill="#F85A40"/>
<path d="M34.3056 24.6084C33.2847 20.4083 32.7736 18.3088 33.928 17.2395C35.0824 16.1702 37.1367 16.8402 41.2465 18.1792L42.3103 18.5256C43.4785 18.9066 44.0626 19.097 44.6445 19.0405C45.2263 18.984 45.7421 18.6851 46.7738 18.0873L47.7117 17.5447C51.3393 15.4461 53.1514 14.3973 54.571 15.2135C55.9883 16.0296 56.0745 18.1717 56.2445 22.4557L56.2879 23.5637C56.3366 24.7802 56.3603 25.3901 56.6183 25.9303C56.8774 26.4716 57.3413 26.8844 58.268 27.7089L59.1129 28.4596C62.3762 31.364 64.0079 32.815 63.7302 34.3882C63.4525 35.9613 61.4498 36.616 57.4468 37.9231L56.4097 38.2632C55.2715 38.6335 54.7035 38.8199 54.2805 39.2117C53.8575 39.6035 53.6283 40.1556 53.172 41.2622L52.7549 42.2692C51.1444 46.1617 50.3386 48.1085 48.7512 48.2652C47.1591 48.4218 45.837 46.684 43.1905 43.2082L42.5076 42.3097C41.7553 41.3215 41.3792 40.8273 40.8591 40.53C40.3403 40.2291 39.734 40.1589 38.5259 40.0186L37.4233 39.8894C33.166 39.3937 31.0368 39.1441 30.3302 37.6673C29.6237 36.1905 30.8092 34.4605 33.1801 31.0051L33.7928 30.1114C34.4665 29.1295 34.8027 28.6392 34.9047 28.0623C35.0068 27.4853 34.8603 26.8895 34.5697 25.6955L34.3056 24.6084Z" fill="#F85A40"/>
<path d="M525.924 902.66C527.059 898.489 527.625 896.404 529.153 896.025C530.68 895.646 532.155 897.225 535.107 900.382L535.871 901.199C536.71 902.097 537.13 902.546 537.666 902.778C538.203 903.009 538.799 902.997 539.991 902.972L541.075 902.949C545.265 902.864 547.358 902.821 548.207 904.221C549.054 905.62 548.095 907.537 546.174 911.371L545.677 912.362C545.132 913.451 544.858 913.996 544.823 914.594C544.789 915.193 544.996 915.778 545.409 916.948L545.786 918.013C547.241 922.133 547.969 924.191 546.966 925.435C545.963 926.678 543.893 926.284 539.757 925.495L538.684 925.292C537.509 925.067 536.921 924.956 536.362 925.094C535.802 925.233 535.335 925.606 534.401 926.354L533.549 927.035C530.259 929.665 528.613 930.981 527.147 930.351C525.678 929.719 525.359 927.559 524.721 923.237L524.557 922.121C524.375 920.892 524.285 920.278 523.973 919.766C523.664 919.252 523.167 918.898 522.177 918.192L521.274 917.546C517.785 915.056 516.042 913.809 516.136 912.174C516.231 910.54 518.104 909.598 521.849 907.717L522.817 907.231C523.881 906.696 524.413 906.429 524.781 905.973C525.149 905.517 525.308 904.925 525.63 903.739L525.924 902.66Z" fill="#F85A40"/>
<path d="M1242.19 901.698C1246.25 903.159 1248.29 903.889 1248.55 905.441C1248.8 906.994 1247.11 908.34 1243.73 911.032L1242.86 911.73C1241.89 912.495 1241.41 912.877 1241.14 913.394C1240.87 913.911 1240.83 914.506 1240.76 915.697L1240.7 916.778C1240.45 920.962 1240.33 923.052 1238.87 923.787C1237.41 924.521 1235.57 923.413 1231.9 921.196L1230.95 920.622C1229.91 919.992 1229.39 919.676 1228.79 919.594C1228.2 919.512 1227.6 919.672 1226.4 919.991L1225.31 920.283C1221.09 921.407 1218.98 921.97 1217.82 920.872C1216.66 919.774 1217.21 917.741 1218.33 913.68L1218.62 912.627C1218.93 911.473 1219.09 910.897 1219 910.328C1218.9 909.759 1218.57 909.264 1217.9 908.273L1217.28 907.371C1214.92 903.883 1213.74 902.138 1214.49 900.726C1215.23 899.311 1217.41 899.165 1221.77 898.87L1222.89 898.795C1224.13 898.712 1224.75 898.67 1225.29 898.399C1225.82 898.132 1226.22 897.665 1227 896.734L1227.72 895.884C1230.47 892.604 1231.85 890.964 1233.48 891.188C1235.1 891.411 1235.89 893.354 1237.47 897.236L1237.88 898.239C1238.32 899.342 1238.55 899.893 1238.97 900.296C1239.4 900.699 1239.98 900.905 1241.13 901.32L1242.19 901.698Z" fill="#F85A40"/>
<path d="M525.924 902.66C527.059 898.489 527.625 896.404 529.153 896.025C530.68 895.646 532.155 897.225 535.107 900.382L535.871 901.199C536.71 902.097 537.13 902.546 537.666 902.778C538.203 903.009 538.799 902.997 539.991 902.972L541.075 902.949C545.265 902.864 547.358 902.821 548.207 904.221C549.054 905.62 548.095 907.537 546.174 911.371L545.677 912.362C545.132 913.451 544.858 913.996 544.823 914.594C544.789 915.193 544.996 915.778 545.409 916.948L545.786 918.013C547.241 922.133 547.969 924.191 546.966 925.435C545.963 926.678 543.893 926.284 539.757 925.495L538.684 925.292C537.509 925.067 536.921 924.956 536.362 925.094C535.802 925.233 535.335 925.606 534.401 926.354L533.549 927.035C530.259 929.665 528.613 930.981 527.147 930.351C525.678 929.719 525.359 927.559 524.721 923.237L524.557 922.121C524.375 920.892 524.285 920.278 523.973 919.766C523.664 919.252 523.167 918.898 522.177 918.192L521.274 917.546C517.785 915.056 516.042 913.809 516.136 912.174C516.231 910.54 518.104 909.598 521.849 907.717L522.817 907.231C523.881 906.696 524.413 906.429 524.781 905.973C525.149 905.517 525.308 904.925 525.63 903.739L525.924 902.66Z" fill="#F85A40"/>
<path d="M1242.19 901.698C1246.25 903.159 1248.29 903.889 1248.55 905.441C1248.8 906.994 1247.11 908.34 1243.73 911.032L1242.86 911.73C1241.89 912.495 1241.41 912.877 1241.14 913.394C1240.87 913.911 1240.83 914.506 1240.76 915.697L1240.7 916.778C1240.45 920.962 1240.33 923.052 1238.87 923.787C1237.41 924.521 1235.57 923.413 1231.9 921.196L1230.95 920.622C1229.91 919.992 1229.39 919.676 1228.79 919.594C1228.2 919.512 1227.6 919.672 1226.4 919.991L1225.31 920.283C1221.09 921.407 1218.98 921.97 1217.82 920.872C1216.66 919.774 1217.21 917.741 1218.33 913.68L1218.62 912.627C1218.93 911.473 1219.09 910.897 1219 910.328C1218.9 909.759 1218.57 909.264 1217.9 908.273L1217.28 907.371C1214.92 903.883 1213.74 902.138 1214.49 900.726C1215.23 899.311 1217.41 899.165 1221.77 898.87L1222.89 898.795C1224.13 898.712 1224.75 898.67 1225.29 898.399C1225.82 898.132 1226.22 897.665 1227 896.734L1227.72 895.884C1230.47 892.604 1231.85 890.964 1233.48 891.188C1235.1 891.411 1235.89 893.354 1237.47 897.236L1237.88 898.239C1238.32 899.342 1238.55 899.893 1238.97 900.296C1239.4 900.699 1239.98 900.905 1241.13 901.32L1242.19 901.698Z" fill="#F85A40"/>
</svg>
